<svg xmlns="http://www.w3.org/2000/svg" width="30" height="30" viewBox="0 0 512 512" fill="#ffffff"><path d="m459.37 151.72c.325 4.548.325 9.1.325 13.645 0 138.72-105.58 298.56-298.56 298.56-59.45 0-114.68-17.219-161.14-47.11 8.447.974 16.568 1.299 25.34 1.299 49.05 0 94.21-16.568 130.27-44.832-46.13-.975-84.79-31.19-98.11-72.77 6.498.974 12.995 1.624 19.818 1.624 9.421 0 18.843-1.3 27.614-3.573-48.08-9.747-84.14-51.98-84.14-102.99v-1.299c13.969 7.797 30.21 12.67 47.43 13.319-28.26-18.843-46.781-51-46.781-87.39 0-19.492 5.197-37.36 14.294-52.954 51.655 63.67 129.3 105.26 216.37 109.81-1.624-7.797-2.599-15.918-2.599-24.04 0-57.828 46.782-104.93 104.93-104.93 30.21 0 57.5 12.67 76.67 33.14 23.715-4.548 46.46-13.32 66.6-25.34-7.798 24.366-24.366 44.833-46.13 57.827 21.12-2.273 41.584-8.122 60.43-16.243-14.292 20.791-32.16 39.31-52.628 54.25"></path></svg>